# xmcd CD database file
#
# Track frame offsets:
#	150
#	21235
#	40107
#
# Disc length: 813 seconds
#
# Revision: 4
# Processed by: cddbd v1.5PL3 Copyright (c) Steve Scherf et al.
# Submitted via: CDex 1.50beta8
#
DISCID=1b032b03
DTITLE=古内東子 - 誰より好きなのに
DYEAR=1900
DGENRE=JPop
TTITLE0=誰より好きなのに
TTITLE1=あの日のふたり
TTITLE2=誰より好きなのに"original karaoke"
EXTD=
EXTT0=
EXTT1=
EXTT2=
PLAYORDER=
